<?xml version="1.0" encoding="UTF-8"?><svg id="Warstwa_1" xmlns="http://www.w3.org/2000/svg" viewBox="0 0 1000 1000"><defs><style>.cls-1{fill:none;}.cls-2{fill:#ae535a;}</style></defs><g><path class="cls-2" d="M610.89,551.33h-22.08v86.84h22.08v-86.84Zm-40.89,86.84v-86.84h-20.59v53.59l-40.09-53.59h-19.47v86.84h20.72v-53.46l39.96,53.46h19.47Zm-154.84-69.25h14.77c14.02,0,24.2,10.57,24.2,25.94s-9.68,25.71-23.2,25.71h-15.76v-51.65Zm-22.08-17.6v86.84h36.47c27.93,0,47.03-17.73,47.03-43.41s-18.85-43.43-46.15-43.43h-37.35Z"/><path class="cls-2" d="M632.97,374.21c21.85,0,31.53,16.13,31.53,55.85s-9.68,56.11-31.53,56.11-31.79-16.39-31.79-56.11,9.42-55.85,31.79-55.85m0-32.24c-49.64,0-77.18,31.49-77.18,88.09s27.54,88.35,77.18,88.35,76.67-31.51,76.67-88.35-27.52-88.09-76.67-88.09m-168.47,32.24c21.85,0,31.53,16.13,31.53,55.85s-9.68,56.11-31.53,56.11-31.79-16.39-31.79-56.11,9.42-55.85,31.79-55.85m0-32.24c-49.64,0-77.18,31.49-77.18,88.09s27.54,88.35,77.18,88.35,76.67-31.51,76.67-88.35-27.52-88.09-76.67-88.09m-102.67,175.2v-173.95h-76.17v35.45h32.02v138.49h44.14Z"/><path class="cls-2" d="M495.43,839.28c-64.34,0-110.86-7.67-166.35-43.76-7.48-4.89-9.6-14.89-4.74-22.39,4.86-7.48,14.85-9.6,22.39-4.74,51.09,33.25,92.9,38.98,156.1,38.5,85.74-.74,166.04-35.25,226.14-97.17,60.17-61.96,92.87-143.92,92.12-230.82-1.58-178.38-145.38-322.45-321.12-322.45-.95,0-1.87,.02-2.8,.02-85.74,.76-166.04,35.25-226.14,97.17-60.15,61.96-92.85,143.95-92.1,230.84,.51,56.42,15.54,111.93,43.51,160.56,4.44,7.75,1.79,17.63-5.96,22.09-7.77,4.42-17.63,1.77-22.09-5.96-30.73-53.45-47.26-114.44-47.81-176.4-.84-95.46,35.11-185.56,101.24-253.67,66.17-68.15,154.62-106.14,249.06-106.98,1.03,0,2.06-.02,3.1-.02,193.48,0,351.74,158.39,353.47,354.5,.82,95.46-35.13,185.54-101.26,253.65-66.17,68.17-154.62,106.16-249.06,106.98-2.59,.02-5.16,.04-7.69,.04Z"/><path class="cls-2" d="M370.33,927.9c-7.24,0-13.84-4.91-15.67-12.26l-32.45-129.77c-1.1-4.36-.32-8.97,2.13-12.74,2.46-3.77,6.36-6.34,10.78-7.12l131.79-22.93c8.8-1.39,17.18,4.38,18.72,13.16,1.52,8.8-4.36,17.18-13.16,18.72l-114.67,19.94,28.24,112.9c2.17,8.66-3.1,17.44-11.77,19.61-1.31,.34-2.63,.48-3.94,.48Z"/></g><rect class="cls-1" x="145.13" y="152.89" width="706.87" height="791.54"/></svg>