<?xml version="1.0" encoding="UTF-8"?><svg id="Warstwa_1" xmlns="http://www.w3.org/2000/svg" viewBox="0 0 1000 1000"><defs><style>.cls-1{fill:#ae535a;}</style></defs><g id="dostawa_ikona" transform="translate(0 22.505)"><g id="Group_26" transform="translate(0 -22.505)"><g id="Group_25" transform="translate(34.634 1.339)"><path class="cls-1" d="M946.2,666.51h-51.34c-9.28,0-16.8-7.52-16.8-16.8s7.52-16.8,16.8-16.8h34.3l-1.18-83.45c-.41-4.41-2.82-8.42-6.52-10.85l-88.09-48.39c-11.17-6.53-21.02-14.29-29.67-23.31l-125.09-137.75c-4.38-4.19-10.07-6.71-16.12-7.14H277.49c-9.28,0-16.8-7.52-16.8-16.8s7.52-16.8,16.8-16.8h385.51c.3,0,.61,0,.91,.03,14.54,.79,28.25,6.86,38.59,17.09,.22,.21,.43,.43,.63,.66l125.11,137.78c6.19,6.43,13.6,12.27,21.7,17.01l88.17,48.42c.26,.15,.52,.3,.78,.46,13.12,8.16,21.57,22.23,22.63,37.64,.02,.3,.03,.6,.04,.91l1.43,101.03c.06,4.49-1.68,8.83-4.84,12.03-3.16,3.2-7.47,5-11.96,5Z"/></g></g><g id="Group_27" transform="translate(25.021 24.434)"><path class="cls-1" d="M302.22,666.51h-69.88c-6.31,0-12.08-3.53-14.95-9.15l-19.48-38.09c-4.23-8.26-.95-18.38,7.3-22.6,8.25-4.23,18.38-.96,22.6,7.31l14.8,28.94h59.6c9.28,0,16.8,7.52,16.8,16.8s-7.52,16.8-16.8,16.8Z"/></g><g id="Group_28" transform="translate(8.506 -11.042)"><path class="cls-1" d="M305.65,390.07H101.94c-9.28,0-16.8-7.52-16.8-16.8s7.52-16.8,16.8-16.8h203.71c9.28,0,16.8,7.52,16.8,16.8s-7.52,16.8-16.8,16.8Z"/></g><g id="Group_29" transform="translate(8.507 15.561)"><path class="cls-1" d="M265.38,568.81H101.95c-9.28,0-16.8-7.52-16.8-16.8s7.52-16.8,16.8-16.8h163.43c9.28,0,16.8,7.52,16.8,16.8s-7.52,16.8-16.8,16.8Z"/></g><g id="Group_31" transform="translate(0 -22.505)"><g id="Group_30" transform="translate(1.339 24.755)"><path class="cls-1" d="M367.7,479.37H53.79c-9.28,0-16.8-7.52-16.8-16.8s7.52-16.8,16.8-16.8H367.7c9.28,0,16.8,7.52,16.8,16.8s-7.52,16.8-16.8,16.8Z"/></g></g><g id="Group_32" transform="translate(63.947 30.103)"><path class="cls-1" d="M724.4,666.51h-249.94c-9.28,0-16.8-7.52-16.8-16.8s7.52-16.8,16.8-16.8h249.94c9.28,0,16.8,7.52,16.8,16.8s-7.52,16.8-16.8,16.8Z"/></g><g id="Group_36" transform="translate(0 -22.505)"><g id="Group_33" transform="translate(75.97 9.227)"><path class="cls-1" d="M755.63,476.08h-183.82c-18.4,0-33.37-14.98-33.37-33.37v-84.46c0-9.28,7.52-16.8,16.8-16.8s16.8,7.52,16.8,16.8v84.46l183.6-.23c9.28,0,16.8,7.52,16.8,16.8s-7.52,16.8-16.8,16.8Z"/></g><g id="Group_34" transform="translate(108.014 45.459)"><path class="cls-1" d="M816.82,711.07h0c-16.86,0-32.7-6.57-44.61-18.49-11.92-11.92-18.48-27.76-18.47-44.61,0-34.77,28.29-63.07,63.07-63.08h.01c16.85,0,32.7,6.56,44.61,18.48,11.92,11.92,18.48,27.76,18.48,44.61h0c0,16.86-6.56,32.7-18.48,44.62-11.92,11.91-27.75,18.47-44.6,18.47Zm-.01-92.59c-16.25,0-29.48,13.23-29.48,29.49,0,7.88,3.06,15.29,8.63,20.86,5.57,5.57,12.98,8.64,20.86,8.64h0c7.87,0,15.28-3.07,20.85-8.64s8.64-12.98,8.64-20.85-3.07-15.29-8.64-20.87c-5.58-5.57-12.99-8.64-20.87-8.64Z"/></g><g id="Group_35" transform="translate(44.722 45.459)"><path class="cls-1" d="M391.57,711.07h0c-16.86,0-32.7-6.57-44.61-18.49-11.92-11.92-18.48-27.76-18.47-44.61,0-34.77,28.29-63.07,63.07-63.08h.01c16.85,0,32.7,6.56,44.61,18.48,11.92,11.92,18.48,27.76,18.48,44.61h0c0,16.86-6.56,32.7-18.48,44.62-11.92,11.91-27.75,18.47-44.6,18.47Zm-.01-92.59c-16.25,0-29.48,13.23-29.48,29.49,0,7.88,3.06,15.29,8.63,20.86,5.57,5.57,12.98,8.64,20.86,8.64h0c7.87,0,15.28-3.07,20.85-8.64,5.57-5.57,8.64-12.98,8.64-20.85s-3.07-15.29-8.64-20.87c-5.58-5.57-12.99-8.64-20.87-8.64Z"/></g></g></g></svg>