<svg enable-background="new 0 0 1000 1000" viewBox="0 0 1000 1000" xmlns="http://www.w3.org/2000/svg"><g fill="#ae535a" transform="translate(-467.483 -72.123)"><g><path d="m967.5 869.4c-2 0-4-.4-6-1.2l-351-152.7c-5.4-2.4-9-7.7-9-13.7v-229c0-5 2.5-9.7 6.7-12.5s9.5-3.2 14.1-1.2l180.4 78.5c7.5 3.3 11 12.1 7.7 19.6-3.3 7.6-12.1 11-19.6 7.7l-159.6-69.4v196.4l321.2 139.7v-196.3l-97.7-42.5c-7.5-3.3-11-12.1-7.7-19.6 3.3-7.6 12.1-11 19.6-7.7l106.7 46.4c5.4 2.4 9 7.7 9 13.7v229c0 5-2.5 9.7-6.7 12.5-2.4 1.5-5.2 2.3-8.1 2.3z"/><path d="m967.5 869.4c-2.9 0-5.7-.8-8.2-2.4-4.2-2.8-6.7-7.4-6.7-12.5v-229c0-5.9 3.5-11.3 9-13.7l123.3-53.6c7.6-3.3 16.3.2 19.6 7.7 3.3 7.6-.2 16.3-7.7 19.6l-114.4 49.7v196.4l321.2-139.7v-196.3l-128.4 55.8c-7.5 3.3-16.3-.2-19.6-7.7-3.3-7.6.2-16.3 7.7-19.6l149.3-64.9c4.6-2 9.9-1.6 14.1 1.2s6.7 7.4 6.7 12.5v229c0 5.9-3.5 11.3-9 13.7l-351 152.6c-1.9.8-3.9 1.2-5.9 1.2z"/><path d="m894.4 366.9c-5.8 0-11.2-3.4-13.7-9-3.3-7.6.2-16.3 7.7-19.6l73.1-31.8c7.6-3.3 16.3.2 19.6 7.7 3.3 7.6-.2 16.3-7.7 19.6l-73.1 31.8c-1.9.9-3.9 1.3-5.9 1.3z"/><path d="m616.4 487.8c-5.8 0-11.2-3.4-13.7-9-3.3-7.5.2-16.3 7.7-19.6l99.1-43c7.6-3.3 16.3.2 19.6 7.7s-.2 16.3-7.7 19.6l-99.1 43c-1.9.9-3.9 1.3-5.9 1.3z"/><path d="m1040.6 366.9c-2 0-4-.4-5.9-1.2l-73.1-31.8c-7.5-3.3-11-12.1-7.7-19.6 3.3-7.6 12-11 19.6-7.7l73.1 31.8c7.5 3.3 11 12.1 7.7 19.6-2.5 5.6-8 8.9-13.7 8.9z"/><path d="m1318.6 487.8c-2 0-4-.4-5.9-1.2l-98.3-42.7c-7.6-3.3-11-12.1-7.7-19.6 3.3-7.6 12.1-11 19.6-7.7l98.3 42.7c7.6 3.3 11 12.1 7.7 19.6-2.5 5.6-8 8.9-13.7 8.9z"/></g><g><path d="m860.6 732.1c-6.3 0-12.1-4-14.1-10.2-.4-1.1-13.2-32.9-74.5-20.6-4 .8-8.2-.1-11.5-2.5s-5.6-6-6.1-10.1c-1.7-11.9-15.1-117.2 37-151.9 3.8-2.6 95-62.9 173.3-78.5 6.9-1.4 14 2.3 16.7 8.9s.4 14.2-5.5 18.1c-24.1 16.1-88.7 64.8-100.7 98.3-1.6 8.7-13.4 76.4 0 129.9 1.9 7.8-2.6 15.7-10.3 17.9-1.5.5-2.9.7-4.3.7zm-62.1-63.6c17.1 0 30.6 3.3 41.1 8.1-3.3-50.5 5.9-97.3 6.4-99.8.1-.6.3-1.2.5-1.8 6.5-19.4 23.9-40.3 43.1-58.9-44.9 21.1-81.2 45.1-81.8 45.5-26.4 17.6-28.1 74.5-25.6 107.8 5.8-.6 11.2-.9 16.3-.9z"/><path d="m1089.6 716.8c-2.2 0-4.3-.5-6.4-1.5-6.4-3-9.8-10.2-8.1-17.1 12.9-51.5 2.5-116.1.2-128.7-11.8-19-73.7-60-115.3-83.7-5.9-3.4-8.8-10.2-7-16.8 1.7-6.5 7.7-11.1 14.4-11.1 57.7 0 110.7 17.2 145.1 31.7 39.8 16.7 56.4 27.4 63.3 34.3l.6-.6c34.9 34.9 21.1 125 19.4 135.1-1.2 7.2-7.4 12.5-14.7 12.5-31.2 0-61 14.9-79.7 39.8-2.8 4-7.2 6.1-11.8 6.1zm-58-221.8c30.2 20.2 62.3 44.8 71.4 62.8.6 1.2 1 2.5 1.3 3.8.5 2.5 9.8 49.8 6.3 100.6 17.2-11.2 37-18.3 57.6-20.4 3.8-32.6 3.5-79.2-11.8-96.3-8.6-5.4-59.2-36.3-124.8-50.5z"/><path d="m998 487.8h-61c-4 0-7.8-1.6-10.5-4.4-22.7-22.6-22.7-59.5 0-82.1 2.8-2.8 6.6-4.4 10.5-4.4h61.1c4 0 7.8 1.6 10.5 4.4 22.6 22.6 22.6 59.5 0 82.1-2.8 2.9-6.6 4.4-10.6 4.4zm-54-29.8h47.1c6.2-9.4 6.2-21.8 0-31.2h-47.1c-6.3 9.4-6.3 21.8 0 31.2z"/><path d="m1076.3 497.9c-49.5 0-80.7-10.1-83-10.8-7.8-2.6-12-11-9.4-18.9 2.6-7.8 11-12 18.8-9.4 1.3.4 85.8 27 197.7-12.9 5.1-14.2 17.2-57.7 3.7-124.3-34.3 36.9-110.6 105.2-206.1 105.2-4.9 0-9.5-2.4-12.3-6.4s-3.4-9.1-1.7-13.7c2-5.4 51.5-131.8 227.7-131.8 6.9 0 12.8 4.7 14.4 11.1 31.6 111 .2 175.6-1.1 178.4-1.7 3.4-4.6 6-8.1 7.3-54.3 20.3-102.8 26.2-140.6 26.2zm100.7-191.3c-88.7 10.4-133.6 59.1-152.9 88.3 67.4-10.3 123.3-57.9 152.9-88.3z"/><path d="m858.7 497.9c-37.8 0-86.3-5.9-140.7-26.3-4.2-1.6-7.5-5-8.9-9.2-19.2-57.2-19.2-120.2 0-177.4 1.8-5.2 6.3-9.1 11.8-10 1-.2 2.1-.2 3.1-.2 175.6.3 224.9 126.4 226.9 131.8 1.7 4.6 1.1 9.7-1.7 13.7s-7.4 6.4-12.3 6.4c-96.1 0-172.8-69.2-206.8-105.9-8.9 41.3-7.2 84.8 5.1 125.3 111.9 39.6 196.2 12.9 197 12.6 7.8-2.6 16.3 1.7 18.8 9.5 2.6 7.8-1.6 16.2-9.4 18.8-2.1.8-33.4 10.9-82.9 10.9zm-100.7-191.3c29.6 30.4 85.6 78.2 153.2 88.4-19-29.3-63.6-78.1-153.2-88.4z"/></g></g></svg>