<?xml version="1.0" encoding="UTF-8"?><svg id="Warstwa_1" xmlns="http://www.w3.org/2000/svg" viewBox="0 0 1000 1000"><defs><style>.cls-1{fill:#ae535a;}</style></defs><g id="Group_40" transform="translate(1.402 1.4)"><path class="cls-1" d="M344.19,826.81c-14.85-.02-26.92-12.1-26.92-26.92v-113.34H184.88c-7.16,0-13.91-2.79-18.99-7.87-5.09-5.08-7.89-11.83-7.89-19.01V200.1c.04-14.89,12.09-26.91,26.88-26.91H815.12c14.85,.02,26.89,12.1,26.88,26.93v459.54c0,7.22-2.82,13.97-7.92,19.05-5.07,5.05-11.8,7.83-18.96,7.83H495.73l-132.52,132.38c-5.09,5.08-11.85,7.87-19.02,7.87Zm-154.43-172.02h132.37c14.83,0,26.91,12.07,26.91,26.92v106.51l125.66-125.53c5.03-5.06,11.79-7.87,18.97-7.89h316.57V204.96H189.76v449.83Zm307.4,30.33l-.02,.02s0,0,.02-.02Zm317.92-30.33h0Zm-630.2,0h0Zm.03-449.83h0Zm630.18,0h0v0Zm-231.69,368.38c-16.04,0-31.13-6.24-42.49-17.58-11.37-11.35-17.64-26.45-17.66-42.52-.02-16.07,6.23-31.17,17.58-42.55,11.35-11.37,26.46-17.64,42.52-17.65h.02c33.17,0,60.15,26.95,60.18,60.09h0c.02,33.17-26.94,60.17-60.1,60.2h-.06Zm.02-88.53h0c-7.61,0-14.74,2.96-20.1,8.33s-8.3,12.5-8.3,20.08c0,7.58,2.97,14.71,8.34,20.07,5.36,5.35,12.48,8.3,20.04,8.3h.03c15.65-.02,28.37-12.76,28.37-28.41-.02-15.64-12.74-28.36-28.37-28.36Zm-196.83,74.29c-4.06,0-8.13-1.55-11.24-4.65-6.2-6.21-6.2-16.26,0-22.46l226.84-226.67c6.2-6.19,16.26-6.2,22.46,0,6.2,6.21,6.2,16.26,0,22.46l-226.84,226.67c-3.1,3.09-7.16,4.64-11.23,4.64Zm29.99-152.29c-16.04,0-31.13-6.24-42.49-17.58-11.37-11.35-17.64-26.45-17.66-42.52-.02-16.07,6.23-31.18,17.57-42.55,11.35-11.37,26.45-17.64,42.52-17.66,33.2,0,60.18,26.96,60.2,60.1h0c.03,33.17-26.92,60.17-60.09,60.2h-.06Zm0-88.54c-7.61,0-14.73,2.97-20.08,8.34-5.36,5.36-8.3,12.49-8.3,20.08s2.97,14.71,8.34,20.07c5.36,5.35,12.48,8.3,20.04,8.3h.03c15.65-.02,28.37-12.76,28.36-28.41h0c0-15.64-12.75-28.37-28.39-28.37Z"/></g></svg>