<?xml version="1.0" encoding="UTF-8"?><svg id="Warstwa_1" xmlns="http://www.w3.org/2000/svg" viewBox="0 0 1000 1000"><defs><style>.cls-1{fill:#ae535a;}</style></defs><path class="cls-1" d="M864.1,769.13H135.9c-7.65,0-13.86-6.21-13.86-13.86V244.72c0-7.65,6.21-13.86,13.86-13.86H864.1c7.65,0,13.86,6.21,13.86,13.86v510.56c0,7.65-6.21,13.86-13.86,13.86Zm-714.34-27.71H850.24V258.58H149.76v482.85Z"/><path class="cls-1" d="M856.88,368.61H143.07c-7.65,0-13.86-6.21-13.86-13.86s6.21-13.86,13.86-13.86H856.88c7.65,0,13.86,6.21,13.86,13.86s-6.21,13.86-13.86,13.86Z"/><path class="cls-1" d="M314.5,769.13c-7.65,0-13.86-6.21-13.86-13.86V251.32c0-7.65,6.21-13.86,13.86-13.86s13.86,6.21,13.86,13.86v503.95c0,7.65-6.21,13.86-13.86,13.86Z"/><path class="cls-1" d="M864.1,556.73H314.62c-7.65,0-13.86-6.21-13.86-13.86s6.21-13.86,13.86-13.86H864.1c7.65,0,13.86,6.21,13.86,13.86s-6.21,13.86-13.86,13.86Z"/><path class="cls-1" d="M511.35,547.55c-7.65,0-13.86-6.21-13.86-13.86v-167.88c0-7.65,6.21-13.86,13.86-13.86s13.86,6.21,13.86,13.86v167.88c0,7.65-6.21,13.86-13.86,13.86Z"/></svg>