<?xml version="1.0" encoding="UTF-8"?><svg id="Warstwa_1" xmlns="http://www.w3.org/2000/svg" viewBox="0 0 1000 1000"><defs><style>.cls-1{fill:#ae535a;}</style></defs><g id="wysyłka_ikona" transform="translate(0 32.86)"><g id="Group_1" transform="translate(13.618 -18.167)"><path class="cls-1" d="M275.16,392.13c-2.47,0-4.98-.63-7.28-1.95l-25.81-14.91c-6.98-4.03-9.36-12.95-5.34-19.92,4.03-6.97,12.94-9.37,19.92-5.34l25.81,14.91c6.98,4.03,9.36,12.95,5.34,19.92-2.71,4.68-7.6,7.29-12.64,7.29Zm94.56-94.53c-5.04,0-9.94-2.61-12.64-7.29l-14.91-25.81c-4.02-6.97-1.64-15.89,5.34-19.92,6.97-4.04,15.88-1.63,19.92,5.34l14.91,25.81c4.02,6.97,1.64,15.89-5.34,19.92-2.29,1.32-4.81,1.95-7.28,1.95Z"/></g><g id="Group_3" transform="translate(0 -32.86)"><g id="Group_2" transform="translate(1.455 1.455)"><path class="cls-1" d="M500,853.89c-195.13,0-353.89-158.75-353.89-353.89S304.87,146.11,500,146.11s353.89,158.75,353.89,353.89-158.75,353.89-353.89,353.89Zm0-678.61c-179.06,0-324.73,145.67-324.73,324.73s145.67,324.73,324.73,324.73,324.73-145.67,324.73-324.73S679.06,175.27,500,175.27Zm0,627.4c-8.05,0-14.58-6.53-14.58-14.58v-29.79c0-8.05,6.53-14.58,14.58-14.58s14.58,6.53,14.58,14.58v29.79c0,8.05-6.53,14.58-14.58,14.58Zm144.07-38.59c-5.04,0-9.95-2.61-12.64-7.3l-14.89-25.81c-4.02-6.98-1.63-15.89,5.35-19.91,6.96-4.03,15.89-1.63,19.91,5.35l14.89,25.81c4.02,6.98,1.63,15.89-5.35,19.91-2.29,1.32-4.8,1.95-7.27,1.95Zm-288.11,0c-2.47,0-4.98-.63-7.28-1.95-6.98-4.03-9.36-12.95-5.34-19.92l14.91-25.81c4.02-6.97,12.94-9.37,19.92-5.34s9.36,12.95,5.34,19.92l-14.91,25.81c-2.71,4.68-7.6,7.29-12.64,7.29Zm-105.43-105.45c-5.04,0-9.95-2.61-12.64-7.3-4.02-6.98-1.63-15.89,5.35-19.91l25.81-14.89c6.97-4.03,15.89-1.64,19.91,5.35,4.02,6.98,1.63,15.89-5.35,19.91l-25.81,14.89c-2.29,1.32-4.8,1.95-7.27,1.95Zm498.96,0c-2.48,0-4.98-.63-7.28-1.96l-25.79-14.9c-6.97-4.03-9.35-12.94-5.33-19.92,4.02-6.97,12.94-9.37,19.92-5.33l25.79,14.9c6.97,4.03,9.35,12.94,5.33,19.92-2.7,4.67-7.6,7.28-12.64,7.28Zm38.61-144.05h-29.79c-8.05,0-14.58-6.53-14.58-14.58s6.53-14.58,14.58-14.58h29.79c8.05,0,14.58,6.53,14.58,14.58s-6.53,14.58-14.58,14.58Zm-158.94,0h-129.15c-5.21,0-10.02-2.78-12.63-7.29l-97.24-168.44c-4.02-6.98-1.64-15.89,5.34-19.92,6.99-4.03,15.88-1.63,19.92,5.34l93.02,161.15h120.73c8.05,0,14.58,6.53,14.58,14.58s-6.53,14.58-14.58,14.58Zm-387.44,0h-29.79c-8.05,0-14.58-6.53-14.58-14.58s6.53-14.58,14.58-14.58h29.79c8.05,0,14.58,6.53,14.58,14.58s-6.53,14.58-14.58,14.58ZM500,256.29c-8.05,0-14.58-6.53-14.58-14.58v-29.79c0-8.05,6.53-14.58,14.58-14.58s14.58,6.53,14.58,14.58v29.79c0,8.05-6.53,14.58-14.58,14.58Z"/></g></g><g id="Group_4" transform="translate(65.039 -19.084)"><path class="cls-1" d="M718.76,385.44c-5.04,0-9.94-2.61-12.64-7.29-4.02-6.97-1.64-15.89,5.34-19.92l25.81-14.91c6.97-4.04,15.88-1.63,19.92,5.34,4.02,6.97,1.64,15.89-5.34,19.92l-25.81,14.91c-2.29,1.32-4.81,1.95-7.28,1.95Zm-94.56-94.53c-2.47,0-4.98-.63-7.28-1.95-6.98-4.03-9.36-12.95-5.34-19.92l14.91-25.81c4.03-6.98,12.94-9.38,19.92-5.34,6.98,4.03,9.36,12.95,5.34,19.92l-14.91,25.81c-2.71,4.68-7.6,7.29-12.64,7.29Z"/></g></g></svg>