<?xml version="1.0" encoding="UTF-8"?><svg id="Warstwa_1" xmlns="http://www.w3.org/2000/svg" viewBox="0 0 1000 1000"><defs><style>.cls-1{fill:#ae535a;}</style></defs><g id="Group_9" transform="translate(-214.522 -72.6)"><g id="Group_8" transform="translate(217.351 74.6)"><g id="Group_6" transform="translate(37.031)"><g id="Group_5" transform="translate(6.943)"><path class="cls-1" d="M586.88,297.82h-86.01c-47.08,0-85.39-34.01-85.39-75.82s38.31-75.83,85.39-75.83c82.63,0,100.19,129.22,100.9,134.72,.55,4.28-.76,8.59-3.61,11.83-2.85,3.24-6.96,5.1-11.28,5.1Zm-86.01-121.62c-30.53,0-55.36,20.54-55.36,45.8s24.83,45.79,55.36,45.79h67.85c-6.94-30.52-26.06-91.59-67.85-91.59Z"/><path class="cls-1" d="M672.85,297.82h-85.97c-4.32,0-8.42-1.85-11.28-5.1-2.85-3.24-4.16-7.55-3.61-11.83,.7-5.5,18.27-134.72,100.86-134.72,47.08,0,85.39,34.02,85.39,75.83s-38.31,75.82-85.39,75.82Zm-67.81-30.03h67.81c30.53,0,55.36-20.54,55.36-45.79s-24.83-45.8-55.36-45.8c-41.76,0-60.88,61.07-67.81,91.59Z"/></g><path class="cls-1" d="M795.37,367.33H378.38c-8.29,0-15.01-6.72-15.01-15.01v-69.5c0-8.29,6.72-15.01,15.01-15.01h417c8.29,0,15.01,6.72,15.01,15.01v69.5c0,8.29-6.72,15.01-15.01,15.01Zm-401.98-30.03h386.97v-39.47H393.39v39.47Z"/><path class="cls-1" d="M760.61,590.94c-8.29,0-15.01-6.72-15.01-15.01v-208.6H428.13v142.06c0,8.29-6.72,15.01-15.01,15.01s-15.01-6.72-15.01-15.01v-157.07c0-8.29,6.72-15.01,15.01-15.01h347.5c8.29,0,15.01,6.72,15.01,15.01v223.61c0,8.29-6.72,15.01-15.01,15.01Z"/><path class="cls-1" d="M586.88,555.85c-8.29,0-15.01-6.72-15.01-15.01V280.38c0-8.29,6.72-15.01,15.01-15.01s15.01,6.72,15.01,15.01v260.45c0,8.29-6.72,15.01-15.01,15.01Z"/></g><g id="Group_7" transform="translate(0 46.289)"><path class="cls-1" d="M300.69,758.8c-3.94,0-7.87-1.54-10.81-4.6-5.75-5.97-5.57-15.48,.4-21.22l46.39-44.66c.42-.41,.87-.78,1.33-1.14,20.75-15.77,47.14-21.21,72.47-14.95l120.61,30.23c12.82,3.2,26.03,4.23,39.19,3.09l127.11-10.6c14.13-1.09,27.51-6.14,38.77-14.6l138.88-104.2c-20.7-12.51-46.81-14.41-69.42-4.09l-92.64,42.05c-7.57,3.41-16.45,.08-19.88-7.46-3.42-7.55-.08-16.45,7.46-19.88l92.61-42.04c39.4-17.98,86.45-9.5,117.07,21.13,3.08,3.08,4.67,7.34,4.36,11.68-.31,4.34-2.49,8.34-5.97,10.95l-154.45,115.88c-15.84,11.89-34.65,18.98-54.4,20.51l-126.97,10.59c-16.47,1.43-32.96,.13-49.02-3.87l-120.6-30.22c-16.11-4.01-32.98-.65-46.38,9.22l-45.72,44.02c-2.91,2.81-6.66,4.2-10.41,4.2Z"/><path class="cls-1" d="M194.89,652.97c-3.49,0-6.99-1.21-9.84-3.67-6.26-5.44-6.93-14.92-1.5-21.19,6.35-7.31,12.51-14.67,18.61-21.96,46.29-55.3,94.15-112.48,199.5-112.48,25.67,.89,49.97,6.74,72.75,17.4,21.1,9.66,43.69,14.64,67.01,14.75h102.78c42.77,.11,77.62,34.96,77.73,77.7,.05,17.92-14.49,32.56-32.41,32.61h-207.41c-8.29,0-15.01-6.72-15.01-15.01s6.72-15.01,15.01-15.01h207.26c1.43,0,2.54-1.12,2.54-2.5-.07-26.27-21.48-47.68-47.74-47.75h-102.81c-27.7-.12-54.44-6.03-79.56-17.53-19.21-8.99-39.57-13.89-60.65-14.63-90.8,0-130.26,47.15-175.95,101.73-6.21,7.43-12.48,14.92-18.95,22.37-2.97,3.42-7.15,5.17-11.35,5.17Z"/><path class="cls-1" d="M256.75,853.82c-3.84,0-7.68-1.47-10.62-4.4l-156.37-156.37c-2.82-2.82-4.4-6.63-4.4-10.62s1.58-7.8,4.4-10.62l69.51-69.51c5.63-5.63,15.6-5.63,21.23,0l156.37,156.37c5.86,5.86,5.86,15.37,0,21.23l-69.5,69.5c-2.93,2.93-6.77,4.4-10.62,4.4Zm-135.14-171.38l135.14,135.14,48.27-48.27-135.14-135.14-48.28,48.28Z"/></g></g></g></svg>