<?xml version="1.0" encoding="UTF-8"?><svg id="Warstwa_1" xmlns="http://www.w3.org/2000/svg" viewBox="0 0 1000 1000"><defs><style>.cls-1{fill:none;}.cls-2{fill:#ae535a;}</style></defs><rect class="cls-1" x="277.3" y="180.68" width="544.32" height="544.32"/><g id="Group_43" transform="translate(0 -29.139)"><g id="Group_42" transform="translate(1.408 1.406)"><path class="cls-2" d="M675.06,806.14c-265.35,.02-481.18-215.77-481.2-481.05-.01-35.08,13.62-68.02,38.38-92.8,24.76-24.78,57.69-38.43,92.72-38.45,7.41,.02,14.72,.66,21.88,1.88l2.88,.45c17.94,3.43,31.66,17.44,34.63,34.95l29.47,173.41c1.73,10.55-3.77,21.03-13.35,25.57h0s-22.95,10.98-37.54,18.07c16.93,42.77,42.15,81.18,74.92,113.95,32.57,32.66,70.73,57.81,113.5,74.79,7.24-14.51,18.52-37.7,18.53-37.71,4.83-9.58,15.02-14.74,25.39-13.09l173.53,29.48c17.51,2.98,31.52,16.71,34.87,34.14l.57,3.59c1.21,6.94,1.87,14.28,1.91,21.55v.07c.01,35.03-13.61,67.96-38.38,92.75-24.76,24.77-57.68,38.43-92.71,38.44ZM324.99,222.95c-27.29,0-52.91,10.63-72.18,29.92-19.26,19.28-29.87,44.91-29.86,72.17,.02,249.27,202.79,452.02,451.99,452.02h.04c27.32,0,52.94-10.63,72.21-29.92,19.26-19.27,29.86-44.88,29.86-72.12-.04-5.65-.54-11.34-1.52-16.93l-.52-3.35c-.99-5.09-5.48-9.49-11.09-10.45l-169.6-28.81c-3.86,7.91-13.63,27.91-19.08,38.71-5.42,10.87-18.18,15.92-29.64,11.73-48.61-18.53-91.73-46.5-128.33-83.21-36.75-36.74-64.77-80.03-83.26-128.66-4.11-11.58,.88-24.22,11.51-29.72,11.12-5.43,30.95-14.96,38.96-18.79l-28.81-169.51c-.95-5.6-5.35-10.09-10.95-11.17l-2.59-.4c-5.78-.99-11.48-1.48-17.13-1.5Zm224.26,418.14l-.02,.04,.02-.04Zm-161.3-237.23"/></g></g></svg>