<?xml version="1.0" encoding="UTF-8"?><svg id="Warstwa_1" xmlns="http://www.w3.org/2000/svg" viewBox="0 0 1000 1000"><defs><style>.cls-1{fill:#ae535a;fill-rule:evenodd;}</style></defs><g id="_0"><path id="Kształt_2" class="cls-1" d="M754.43,585.81v-246.55c-.03-25.68-20.84-46.49-46.52-46.52h-32.2v23.55c-.1,13-10.6,23.46-23.45,23.36-12.69-.1-22.95-10.48-23.07-23.33v-23.58h-107.35v23.55c0,13-10.4,23.55-23.24,23.56-12.85,0-23.27-10.53-23.28-23.53h0v-23.58h-105.56v23.08c0,12.57-9.65,23.43-22.21,23.99-13.32,.59-24.31-10.17-24.31-23.52v-23.55h-29.59c-26.13,.03-47.31,21.09-47.34,47.09v367.99c.03,25.68,21.1,46.49,47.09,46.52h414.42c26-.03,47.06-20.84,47.09-46.52,.11-12.85,10.75-23.17,23.75-23.06,12.84,.11,23.23,10.37,23.34,23.06-.06,51.36-42.19,92.98-94.18,93.04H292.01c-51.89-.06-93.95-42.11-94.01-94V340.23c.06-51.89,42.11-93.95,94.01-94.01h31.23v-23.08c0-12.57,9.65-23.43,22.21-23.99,13.32-.59,24.31,10.17,24.31,23.52v23.55h105.56v-23.55c.18-13,10.75-23.39,23.59-23.21,12.57,.18,22.73,10.45,22.92,23.17v23.58h107.35v-23.55c.15-13,10.68-23.42,23.53-23.27,12.62,.15,22.83,10.46,22.99,23.24v23.58h32.19c51.37,.06,92.99,41.68,93.05,93.04v246.55c-.25,12.84-10.87,23.05-23.72,22.8-12.49-.25-22.56-10.32-22.8-22.81Zm-430.29,24.89c17.33,10.26,37.02,15.87,57.15,16.27,44.85,0,58.74-28.57,58.34-50.01-.4-36.11-32.94-51.59-66.68-51.63h-19.3v-26.84h19.3c25.41,.68,57.55-12.42,57.55-42.97,0-20.64-13.1-38.89-45.24-38.89-20.64,0-40.48,9.12-51.6,17.07l-9.12-25.41c13.49-9.92,39.69-19.84,67.47-19.84,50.8,0,73.82,30.16,73.82,61.52,0,26.59-15.88,49.21-47.76,60.72v.79c31.89,6.35,57.68,30.16,57.68,66.28,0,41.27-32.15,77.39-94.06,77.39-28.97,0-54.37-9.12-67.07-17.46l9.52-26.98Zm366.72-91.68c0,87.71-32.54,136.13-89.7,136.13-50.41,0-84.54-47.23-85.33-132.56,0-86.52,37.31-134.14,89.7-134.14,54.37,0,85.33,48.42,85.33,130.57Zm-140.1,3.97c0,67.07,20.64,105.17,52.39,105.17,35.72,0,52.78-41.67,52.78-107.55s-16.28-105.17-52.39-105.17c-30.55,0-52.78,37.31-52.78,107.55Z"/></g></svg>