<svg id="Group_74" data-name="Group 74" xmlns="http://www.w3.org/2000/svg" xmlns:xlink="http://www.w3.org/1999/xlink" width="230.685" height="33.019" viewBox="0 0 230.685 33.019">
  <defs>
    <clipPath id="clip-path">
      <rect id="Rectangle_14" data-name="Rectangle 14" width="230.685" height="33.019" fill="#090909"/>
    </clipPath>
  </defs>
  <g id="Group_73" data-name="Group 73" transform="translate(0 0)" clip-path="url(#clip-path)">
    <path id="Path_408" data-name="Path 408" d="M243.866,0c-9.628,0-15.152,6.02-15.152,16.514s5.524,16.5,15.152,16.5c9.453,0,15.1-6.171,15.1-16.5C258.964,6.02,253.46,0,243.866,0m0,28.443c-7.238,0-8.756-6.512-8.756-11.978s1.518-11.982,8.756-11.982c7.189,0,8.7,6.517,8.7,11.982s-1.51,11.978-8.7,11.978" transform="translate(-123.223 0)" fill="#090909"/>
    <path id="Path_409" data-name="Path 409" d="M15.315,21.227h0v3.118l16.358,8.846L18,1.5H9.6V5.1l2.272.547L0,33.187H5.083L15.318,9.457l5.075,11.767H15.315Z" transform="translate(0 -0.81)" fill="#090909"/>
    <path id="Path_410" data-name="Path 410" d="M106.231,25.216H102.6l-.8,3.3-13.529,0,17.217-21.6V1.471H81.605l0,7.766h3.635l.8-3.315H98.993L81.61,28.039v5.116h24.624Z" transform="translate(-43.966 -0.792)" fill="#090909"/>
    <path id="Path_411" data-name="Path 411" d="M154.363,1.528l0,7.766H158l.8-3.315h6.86v22.8l-3.315.8v3.635h12.61V29.58l-3.315-.8V5.979h6.519l.8,3.315h3.635l0-7.766Z" transform="translate(-83.165 -0.823)" fill="#090909"/>
    <path id="Path_412" data-name="Path 412" d="M335.015,29.405l-2.821-.639s-1.594-5.957-1.618-6.038c-1.416-5.236-2.639-5.394-2.639-5.394a8.417,8.417,0,0,0,3.487-7.12c0-3.733-1.745-8.685-11.4-8.685l-12.755,0V5.168l3.316.8V28.782l-3.315.8v3.635h9.3l0-13.715h1.957c2.416,0,4.167.229,5.182,1.59,1.119,1.5,3.69,12.11,3.69,12.11h8.346V29.571ZM319.676,15.264l-3.107-.018V5.917h2.751c5.274,0,6.221,1.672,6.221,4.694,0,3.839-3.5,4.619-5.865,4.654" transform="translate(-165.547 -0.824)" fill="#090909"/>
    <path id="Path_413" data-name="Path 413" d="M398.024,28.781v-.017h-.012V5.963l3.314-.8V1.528H388.717V5.163l3.315.8v.016h.012v22.8l-3.315.8v3.635h12.609V29.58Z" transform="translate(-209.427 -0.823)" fill="#090909"/>
    <path id="Path_414" data-name="Path 414" d="M465.321,1.487,456.9,1.5l.01,22.14L444.864,1.5h-9.356V5.141l3.315.8v.016h.012v22.8l-3.314.8v3.635h8.352l0-22.533,12.288,22.518h5.842V5.922l3.315-.8Z" transform="translate(-234.636 -0.801)" fill="#090909"/>
  </g>
</svg>
