<svg xmlns="http://www.w3.org/2000/svg" xmlns:xlink="http://www.w3.org/1999/xlink" width="500.145" height="58.13" viewBox="0 0 500.145 58.13">
  <defs>
    <clipPath id="clip-path">
      <rect id="Rectangle_141" data-name="Rectangle 141" width="500.145" height="58.13" fill="none"/>
    </clipPath>
  </defs>
  <g id="Group_66" data-name="Group 66" transform="translate(0 0)">
    <g id="Group_65" data-name="Group 65" transform="translate(0 0)" clip-path="url(#clip-path)">
      <path id="Path_398" data-name="Path 398" d="M73.739,11.859H1.425A1.257,1.257,0,0,1,.34,11.316a1.57,1.57,0,0,1-.31-1.163C.573,7.286,3.363.7,17.7,0H73.739a1.389,1.389,0,0,1,1.4,1.4v8.991a1.364,1.364,0,0,1-1.4,1.473" transform="translate(-0.002 0)"/>
      <path id="Path_399" data-name="Path 399" d="M73.737,71.559H17.7C3.361,70.938.57,64.273.028,61.405a1.3,1.3,0,0,1,.31-1.163A1.628,1.628,0,0,1,1.423,59.7H73.737a1.389,1.389,0,0,1,1.4,1.4v8.991a1.364,1.364,0,0,1-1.4,1.473" transform="translate(0 -13.428)"/>
      <path id="Path_400" data-name="Path 400" d="M1.431,42.181a1.632,1.632,0,0,1-1.008-.388,1.473,1.473,0,0,1-.388-1.008V31.873a1.389,1.389,0,0,1,1.4-1.4L55.763,30.4a1.632,1.632,0,0,1,1.008.388,1.473,1.473,0,0,1,.388,1.008v8.913a1.389,1.389,0,0,1-1.4,1.4Z" transform="translate(-0.008 -6.838)"/>
      <path id="Path_401" data-name="Path 401" d="M232.6,57.92H176.563c-16.819-.775-17.749-10.076-17.827-11.161V1.5a1.633,1.633,0,0,1,.388-1.008A1.473,1.473,0,0,1,160.131.1h8.991a1.389,1.389,0,0,1,1.4,1.4V46.062h61.928a1.389,1.389,0,0,1,1.4,1.4v9.068a1.153,1.153,0,0,1-1.24,1.4" transform="translate(-35.705 -0.023)"/>
      <path id="Path_402" data-name="Path 402" d="M327.922,58.22h-8.991a1.389,1.389,0,0,1-1.4-1.4V17.994a33.182,33.182,0,0,1,.7-5.891C320.249,2.88,325.519.788,327.689.4H328a1.489,1.489,0,0,1,.93.31,1.48,1.48,0,0,1,.543,1.085V56.9a1.587,1.587,0,0,1-1.55,1.318" transform="translate(-71.424 -0.09)"/>
      <path id="Path_403" data-name="Path 403" d="M396.262,58.043a.7.7,0,0,1-.388-.078,1.553,1.553,0,0,1-.93-.775c-1.008-2.325-2.248-8.6,7.828-16.354L419.437,29.21,402.773,17.584c-10-7.673-8.836-14.029-7.828-16.354a1.462,1.462,0,0,1,.93-.853c.155,0,.233-.078.388-.078a1.309,1.309,0,0,1,.775.233l31.855,22.089L460.593.533A1.5,1.5,0,0,1,461.368.3a.7.7,0,0,1,.388.078,1.448,1.448,0,0,1,.93.853c1.008,2.325,2.17,8.681-7.828,16.354L438.193,29.21l16.742,11.626c10,7.673,8.836,14.029,7.828,16.354a1.462,1.462,0,0,1-.93.853c-.155,0-.233.078-.388.078a1.31,1.31,0,0,1-.775-.233L428.892,35.8l-31.7,22.089a4.64,4.64,0,0,1-.93.155" transform="translate(-88.687 -0.068)"/>
      <path id="Path_404" data-name="Path 404" d="M621.4,57.9h-.31a1.1,1.1,0,0,1-.465-.155c-3.023-.853-9.068-3.565-15.889-12.091a59.582,59.582,0,0,1-3.953-5.658L584.122,11.238,567.923,39.3a64.415,64.415,0,0,1-4.418,6.278c-7.053,8.913-13.254,11.471-16.276,12.246h-.31a1.649,1.649,0,0,1-1.163-.543,1.412,1.412,0,0,1-.078-1.55l1.008-1.705L577.534.7a1.315,1.315,0,0,1,1.24-.7h10.773a1.467,1.467,0,0,1,1.24.7L611.25,36.041l11.393,19.687a1.412,1.412,0,0,1-.078,1.55,1.367,1.367,0,0,1-1.163.62" transform="translate(-122.696 0)"/>
    </g>
  </g>
</svg>
